<?xml version="1.0" encoding="UTF-8"?>
<svg version="1.1" xmlns="http://www.w3.org/2000/svg" width="1024" height="1024">
<path d="M0 0 C22.2271331 17.63129731 24.20159245 67.5543968 28.97241211 94.00927734 C37.1175993 167.1328672 37.1175993 167.1328672 63.97265625 233.328125 C65.828125 235.6484375 65.828125 235.6484375 65.828125 237.6484375 C70.51055515 233.9893199 71.74796765 229.22178358 73.515625 223.7734375 C73.85811279 222.72663818 74.20060059 221.67983887 74.5534668 220.60131836 C80.89416455 200.52363733 85.05188842 179.76770111 89.5625 159.22265625 C104.93539834 89.29841804 104.93539834 89.29841804 119.828125 72.6484375 C120.27542969 72.12894531 120.72273438 71.60945313 121.18359375 71.07421875 C125.70000957 67.15856133 131.04479765 67.09553017 136.7578125 67.21484375 C142.67215358 68.05007512 146.53312076 71.06865171 150.43359375 75.453125 C157.02448272 84.53547602 161.30624258 95.81030016 165.515625 106.1484375 C170.54811554 118.71219661 170.54811554 118.71219661 180.265625 127.3984375 C185.86522609 129.36320981 191.00409737 129.82379021 196.91015625 129.9296875 C197.72433014 129.94773437 198.53850403 129.96578125 199.37734985 129.984375 C202.13169743 130.04386539 204.88612733 130.09638713 207.640625 130.1484375 C209.66089166 130.1893057 211.68115525 130.23032606 213.70141602 130.27148438 C219.25766438 130.38249544 224.81403277 130.48560589 230.3704834 130.5859375 C233.77207343 130.64742432 237.17363409 130.71037948 240.57519531 130.7734375 C247.80521722 130.90591719 255.03536957 131.02942214 262.265625 131.1484375 C263.53378052 131.16939484 264.80193604 131.19035217 266.10852051 131.21194458 C284.36024513 131.50674188 302.61178875 131.69803451 320.86536217 131.83642197 C324.36189456 131.86324065 327.85841517 131.89126403 331.35493469 131.91970825 C333.69308469 131.93866275 336.03123472 131.95761416 338.36938477 131.9765625 C339.52855565 131.98599318 340.68772654 131.99542385 341.88202381 132.0051403 C348.85485435 132.06087953 355.82767507 132.1072395 362.8006134 132.1471014 C367.18783713 132.17410285 371.57497328 132.20904906 375.96212387 132.24594307 C378.02352466 132.26152837 380.08495458 132.27368063 382.14639664 132.2822094 C384.99300871 132.29437175 387.8392858 132.31852714 390.68579102 132.34545898 C391.92809809 132.34634647 391.92809809 132.34634647 393.19550228 132.34725189 C398.08250556 132.40849951 402.25059238 132.86008815 406.828125 134.6484375 C407.158125 135.6384375 407.488125 136.6284375 407.828125 137.6484375 C406.53335571 139.60383606 406.53335571 139.60383606 403.828125 141.6484375 C400.08582635 142.33761013 396.34200456 142.31995759 392.54443359 142.36206055 C391.38855743 142.39029907 390.23268127 142.4185376 389.04177856 142.44763184 C385.18686347 142.53708739 381.33201675 142.59862872 377.4765625 142.66015625 C374.75134775 142.71548048 372.02627165 142.77663773 369.30117798 142.83760071 C362.80453691 142.9795416 356.30767608 143.10134618 349.81050456 143.21611959 C342.65260116 143.34351649 335.49522901 143.49313375 328.33780754 143.64489877 C311.5254204 144.00035421 294.71233866 144.31270327 277.89886236 144.61160612 C275.8251372 144.64849064 273.75141453 144.68551315 271.67769241 144.72256851 C247.5187154 145.15395014 223.35960813 145.58299944 199.19923019 145.92899132 C197.7233831 145.95058299 196.247555 145.97350735 194.77174759 145.99765968 C183.37283414 146.17796142 171.64826609 145.10468645 162.5859375 137.4453125 C151.7448948 126.36335774 145.8929317 110.48635767 140.52954102 96.21142578 C140.21944092 95.40044434 139.90934082 94.58946289 139.58984375 93.75390625 C139.32131592 93.03356201 139.05278809 92.31321777 138.77612305 91.57104492 C137.7446599 89.47916435 136.5569541 88.19506083 134.828125 86.6484375 C131.82853978 87.66328646 130.92808776 88.46780775 129.37109375 91.28125 C120.78842806 113.39336277 115.70889208 136.3792867 110.828125 159.5234375 C93.97192072 239.30351373 93.97192072 239.30351373 78.3203125 252.109375 C73.43020667 255.12928362 68.32501579 256.15866 62.6328125 255.328125 C53.68340788 252.55556435 48.17967521 245.50902003 43.76660156 237.61035156 C39.57823973 229.65122369 36.67211517 221.15997437 33.828125 212.6484375 C33.6007666 211.97200195 33.3734082 211.29556641 33.13916016 210.59863281 C29.828125 200.63753243 29.828125 200.63753243 29.828125 195.6484375 C29.168125 195.3184375 28.508125 194.9884375 27.828125 194.6484375 C27.3293457 192.75756836 27.3293457 192.75756836 26.94140625 190.17578125 C26.14060607 185.34080509 25.18706978 180.55982707 24.12109375 175.77734375 C23.78469342 174.25301382 23.44869216 172.72859578 23.11303711 171.20410156 C22.93529755 170.39686646 22.75755798 169.58963135 22.57443237 168.75793457 C18.10220812 148.37391205 14.14554615 127.90123948 10.265625 107.3984375 C4.93693402 79.23340684 4.93693402 79.23340684 -0.796875 51.1484375 C-1.03133835 50.03704407 -1.03133835 50.03704407 -1.27053833 48.90319824 C-3.06203994 40.43944522 -5.00690196 32.02517243 -7.171875 23.6484375 C-8.821875 23.3184375 -10.471875 22.9884375 -12.171875 22.6484375 C-13.09155964 26.99259496 -14.00719888 31.3375582 -14.91796875 35.68359375 C-15.7542117 39.67279707 -16.60235445 43.65924053 -17.45703125 47.64453125 C-20.59933337 62.43664413 -23.39921817 77.26850562 -26.08474731 92.1494751 C-38.36825791 160.12219223 -38.36825791 160.12219223 -53.36328125 172.4921875 C-59.05840603 176.1331312 -64.59272299 176.27825323 -71.171875 175.6484375 C-83.54000331 171.06764924 -88.71789494 159.119138 -93.97094727 147.92016602 C-97.52544541 140.11937754 -100.6236762 132.12499093 -103.67114258 124.11474609 C-106.39279035 116.75654531 -106.39279035 116.75654531 -111.171875 110.6484375 C-112.161875 110.6484375 -113.151875 110.6484375 -114.171875 110.6484375 C-114.42767334 111.14134277 -114.68347168 111.63424805 -114.94702148 112.14208984 C-129.21085694 139.3733373 -129.21085694 139.3733373 -144.41015625 144.38671875 C-150.57106562 145.83114248 -156.76751453 145.74298471 -163.0546875 145.7109375 C-164.50631035 145.70674553 -164.50631035 145.70674553 -165.98725891 145.70246887 C-205.2584015 145.5499929 -244.52835959 144.451811 -283.78359985 143.40615845 C-288.71479921 143.27495082 -293.64608104 143.1480571 -298.57748413 143.02474976 C-304.46041799 142.87720977 -310.34301773 142.72001801 -316.22550011 142.55548477 C-318.4287219 142.49535838 -320.63203541 142.43849879 -322.83542824 142.38500595 C-325.87238029 142.31060751 -328.90876843 142.22434493 -331.9453125 142.13500977 C-332.84248584 142.11571757 -333.73965918 142.09642538 -334.66401958 142.07654858 C-335.48307183 142.05000352 -336.30212408 142.02345846 -337.14599609 141.99610901 C-338.21048477 141.96763807 -338.21048477 141.96763807 -339.29647827 141.93859196 C-341.171875 141.6484375 -341.171875 141.6484375 -344.171875 139.6484375 C-343.296875 134.7734375 -343.296875 134.7734375 -342.171875 133.6484375 C-332.26372501 132.35362354 -322.19920586 132.45568256 -312.22265625 132.3671875 C-310.58322707 132.34937104 -308.94380245 132.33113097 -307.30438232 132.3125 C-303.83120665 132.27369261 -300.35801807 132.23729793 -296.88479614 132.20288086 C-288.66612287 132.12108063 -280.44760977 132.02501145 -272.22907829 131.93019104 C-269.46779083 131.89842647 -266.70649857 131.86710498 -263.94520569 131.83581543 C-241.33836471 131.57766249 -218.73373378 131.21580058 -196.12988281 130.76464844 C-192.2829633 130.68813529 -188.43604019 130.61812095 -184.58886719 130.55566406 C-180.48526707 130.48902992 -176.38214676 130.40989064 -172.27902222 130.31860352 C-170.8697098 130.28926555 -169.46029383 130.2644309 -168.05081177 130.24487305 C-158.11889579 130.10251326 -149.35290637 129.58959074 -141.80224609 122.53955078 C-138.55972705 118.77846175 -136.31260811 114.44872542 -133.984375 110.0859375 C-125.29039493 94.10094492 -125.29039493 94.10094492 -117.171875 90.6484375 C-111.30095649 89.18070787 -106.76912272 89.59169678 -101.45703125 92.62890625 C-90.10696848 100.99346498 -85.70376351 117.32089241 -80.61474609 129.85864258 C-77.79446045 136.79688274 -74.92760751 143.68107866 -71.609375 150.3984375 C-71.29935547 151.04087402 -70.98933594 151.68331055 -70.66992188 152.34521484 C-68.85986777 155.99110225 -68.85986777 155.99110225 -65.171875 157.6484375 C-64.841875 156.9884375 -64.511875 156.3284375 -64.171875 155.6484375 C-63.511875 155.6484375 -62.851875 155.6484375 -62.171875 155.6484375 C-58.63855753 145.10728166 -55.54744822 134.6334938 -53.2890625 123.7421875 C-53.03671844 122.54436646 -52.78437439 121.34654541 -52.52438354 120.11242676 C-49.8754544 107.42887209 -47.42100733 94.70800214 -45.01953125 81.97558594 C-44.40491366 78.72060439 -43.7855379 75.46660365 -43.16366768 72.21300507 C-42.56134729 69.05672734 -41.96451123 65.89941403 -41.3671875 62.7421875 C-41.03450363 61.0018927 -41.03450363 61.0018927 -40.69509888 59.22644043 C-40.49423676 58.15591431 -40.29337463 57.08538818 -40.08642578 55.98242188 C-39.90910919 55.04539429 -39.7317926 54.1083667 -39.54910278 53.14294434 C-39.07219276 50.40974344 -39.07219276 50.40974344 -39.171875 46.6484375 C-38.511875 46.6484375 -37.851875 46.6484375 -37.171875 46.6484375 C-36.99398437 44.69357422 -36.99398437 44.69357422 -36.8125 42.69921875 C-36.27888619 37.92747986 -35.24295743 33.44509216 -33.921875 28.8359375 C-33.69935059 28.05621582 -33.47682617 27.27649414 -33.24755859 26.47314453 C-26.83258177 4.55191648 -26.83258177 4.55191648 -17.26171875 -1.57421875 C-11.19818449 -4.35886371 -5.58886435 -3.47796235 0 0 Z M-11.171875 19.6484375 C-10.171875 21.6484375 -10.171875 21.6484375 -10.171875 21.6484375 Z " fill="#ECAD46" transform="translate(479.171875,361.3515625)"/>
<path d="M0 0 C0 0.33 0 0.66 0 1 C-0.88034912 1.02505615 -1.76069824 1.0501123 -2.66772461 1.07592773 C-6.02456014 1.17270256 -9.38131235 1.27179581 -12.73803711 1.37231445 C-14.17388348 1.41486867 -15.60975533 1.45657383 -17.0456543 1.49731445 C-19.14379509 1.55700866 -21.24181612 1.62005821 -23.33984375 1.68359375 C-24.59144287 1.72025146 -25.84304199 1.75690918 -27.13256836 1.79467773 C-30.62603839 1.91840485 -34.10839889 2.13990505 -37.59601021 2.37466621 C-48.44528434 3.08446786 -59.25993959 3.12845728 -70.12890625 3.09765625 C-72.10001082 3.09578558 -74.07111586 3.09436475 -76.04222107 3.09336853 C-81.1695998 3.0895944 -86.29694911 3.07980926 -91.42431641 3.06866455 C-96.68066002 3.05833915 -101.93700849 3.05384734 -107.19335938 3.04882812 C-117.46225234 3.03818112 -127.7311237 3.02116799 -138 3 C-138.33 3.66 -138.66 4.32 -139 5 C-142.3 4.67 -145.6 4.34 -149 4 C-149 4.66 -149 5.32 -149 6 C-147.98156006 5.98912354 -146.96312012 5.97824707 -145.91381836 5.96704102 C-131.84911077 5.86805728 -117.80869725 6.32649291 -103.75372314 6.79763794 C-96.56397489 7.0383771 -89.37386404 7.2676245 -82.18359375 7.4921875 C-81.459478 7.51482477 -80.73536224 7.53746204 -79.98930359 7.56078529 C-63.28298765 8.07919445 -46.57394431 8.40511956 -29.86157227 8.65795898 C-17.88705542 8.84762888 -5.9542975 9.27282534 6 10 C6 10.33 6 10.66 6 11 C-26.79504964 12.02501021 -59.45300533 11.91242587 -92.24707031 10.90356445 C-98.31074719 10.71704119 -104.37480063 10.55065631 -110.43919945 10.38952923 C-115.17297688 10.26192353 -119.90645066 10.12507823 -124.63988113 9.98523903 C-126.88135774 9.91997311 -129.12291438 9.85739626 -131.36454391 9.79761314 C-134.44831198 9.71384568 -137.53145174 9.61783028 -140.61474609 9.51831055 C-141.98388908 9.48466148 -141.98388908 9.48466148 -143.38069153 9.45033264 C-144.63112999 9.40617722 -144.63112999 9.40617722 -145.90682983 9.36112976 C-146.62947714 9.3395515 -147.35212444 9.31797323 -148.09667015 9.29574108 C-150 9 -150 9 -153 7 C-152.125 2.125 -152.125 2.125 -151 1 C-141.24575343 -0.25552703 -131.34389846 -0.22069613 -121.5234375 -0.3515625 C-119.93014828 -0.37522194 -118.33686117 -0.39902433 -116.74357605 -0.42295837 C-112.49726114 -0.48488115 -108.25088588 -0.53989775 -104.00444412 -0.59233475 C-101.36743851 -0.62509394 -98.73045779 -0.65949215 -96.09347534 -0.69406128 C-64.04298884 -1.10599341 -32.04297242 -0.83833275 0 0 Z " fill="#E5A038" transform="translate(288,494)"/>
<path d="M0 0 C0.81055847 -0.00950684 1.62111694 -0.01901367 2.45623779 -0.02880859 C3.12051788 -0.03662354 3.78479797 -0.04443848 4.46920776 -0.05249023 C10.0661059 -0.06146646 15.60304219 0.09843987 21.18426514 0.52368164 C29.00593063 1.06522857 36.81159063 1.25542692 44.65106201 1.35400391 C46.06452424 1.37465577 47.47798145 1.39565382 48.89143372 1.41697693 C52.55563201 1.47135023 56.21987781 1.52112148 59.88415527 1.56982422 C63.64569163 1.62067103 67.40716166 1.67602224 71.16864014 1.73095703 C78.5077762 1.8374968 85.84696859 1.93915879 93.18621826 2.03759766 C93.18621826 2.69759766 93.18621826 3.35759766 93.18621826 4.03759766 C79.30423774 4.06095873 65.42226027 4.07852614 51.54026413 4.08940983 C45.0946052 4.09463291 38.64895945 4.10172018 32.20330811 4.11303711 C25.9852714 4.12388633 19.7672474 4.12987883 13.54920197 4.1324749 C11.17450002 4.13432546 8.79979879 4.13793904 6.42510223 4.14332771 C3.10424791 4.15056508 -0.21655364 4.15158745 -3.53741455 4.15112305 C-4.52356247 4.15471832 -5.50971039 4.1583136 -6.52574158 4.16201782 C-7.43155472 4.16064316 -8.33736786 4.15926849 -9.27062988 4.15785217 C-10.05599751 4.15877397 -10.84136513 4.15969576 -11.65053177 4.16064548 C-13.82825359 4.03677448 -15.71377822 3.6055156 -17.81378174 3.03759766 C-19.40090633 2.92674696 -20.99162703 2.86220809 -22.58233643 2.83227539 C-23.52300964 2.81233017 -24.46368286 2.79238495 -25.43286133 2.77183533 C-26.44028381 2.75512283 -27.4477063 2.73841034 -28.48565674 2.72119141 C-30.04198822 2.69001976 -30.04198822 2.69001976 -31.62976074 2.65821838 C-34.94103432 2.59288357 -38.25238656 2.53391249 -41.56378174 2.47509766 C-43.80988359 2.43189717 -46.05597752 2.38828238 -48.30206299 2.34423828 C-53.80588631 2.23721863 -59.30978772 2.13542244 -64.81378174 2.03759766 C-64.81378174 1.70759766 -64.81378174 1.37759766 -64.81378174 1.03759766 C-57.02361545 0.90553125 -49.23342434 0.77504376 -41.44320011 0.64644623 C-37.82395722 0.58665445 -34.20472419 0.52636511 -30.58551025 0.46484375 C-20.39055884 0.29185991 -10.19552009 0.13623219 0 0 Z " fill="#E69B2C" transform="translate(778.8137817382813,492.96240234375)"/>
<path d="M0 0 C0.33 0 0.66 0 1 0 C1 1.65 1 3.3 1 5 C-2.0925516 6.5462758 -5.37772609 6.24318093 -8.77734375 6.31640625 C-9.61515884 6.33723267 -10.45297394 6.35805908 -11.31617737 6.3795166 C-14.18984365 6.44724953 -17.06359962 6.50560177 -19.9375 6.5625 C-20.93523437 6.58367889 -21.93296875 6.60485779 -22.9609375 6.62667847 C-59.29809878 7.37461743 -95.65740375 7.08647583 -132 7 C-132 6.67 -132 6.34 -132 6 C-122.75039942 5.67544382 -113.50037318 5.36417268 -104.25 5.0625 C-103.19709778 5.02815228 -103.19709778 5.02815228 -102.1229248 4.99311066 C-78.08464582 4.21289163 -54.04860838 3.69970406 -30 3.375 C-29.24165359 3.36475422 -28.48330719 3.35450844 -27.70198059 3.34395218 C-18.46809526 3.22003294 -9.234119 3.10520712 0 3 C0 2.01 0 1.02 0 0 Z " fill="#E89D2F" transform="translate(884,497)"/>
<path d="M0 0 C12.53761073 -0.12837144 25.04256465 0.08389275 37.57351685 0.50509644 C47.38783018 0.83208085 57.20132871 1.07576019 67.01953125 1.25390625 C68.158564 1.27464706 69.29759674 1.29538788 70.47114563 1.3167572 C76.15199323 1.41878774 81.83289138 1.51556957 87.51391602 1.60717773 C100.02936477 1.81944794 112.50588615 2.2320491 125 3 C125 3.33 125 3.66 125 4 C77.67943878 5.2974613 77.67943878 5.2974613 55.375 4.625 C54.63068726 4.60357941 53.88637451 4.58215881 53.11950684 4.56008911 C46.34133415 4.35644125 39.72045363 3.96386328 33 3 C30.96006187 2.87412596 28.91789572 2.78014137 26.875 2.71875 C25.19664062 2.66267578 25.19664062 2.66267578 23.484375 2.60546875 C22.33453125 2.57066406 21.1846875 2.53585937 20 2.5 C6.20618557 2.08247423 6.20618557 2.08247423 0 1 C0 0.67 0 0.34 0 0 Z " fill="#E69A29" transform="translate(169,501)"/>
<path d="M0 0 C9.13633822 -0.04642892 18.27263555 -0.08192273 27.4090662 -0.10362434 C31.65190372 -0.11404229 35.89466025 -0.12816502 40.13745117 -0.15087891 C44.23528777 -0.17267841 48.33304668 -0.18458358 52.43093681 -0.18975449 C53.99096333 -0.19343751 55.55098581 -0.20062947 57.11097908 -0.21146011 C59.30332612 -0.22606973 61.49535592 -0.22797403 63.68774414 -0.22705078 C64.93350723 -0.231492 66.17927032 -0.23593323 67.46278381 -0.24050903 C71.26490179 0.0180117 74.43442904 0.65286131 78 2 C78.495 3.485 78.495 3.485 79 5 C78.34 5.66 77.68 6.32 77 7 C76.505 6.505 76.505 6.505 76 6 C74.14251209 6.09455193 72.28827463 6.25355798 70.4375 6.4375 C62.61127625 7.11577273 54.84660766 7.090654 47 7 C49 4 49 4 51 3.3125 C55.33553694 2.86088157 59.64540722 2.92390032 64 3 C64 2.34 64 1.68 64 1 C42.88 1 21.76 1 0 1 C0 0.67 0 0.34 0 0 Z " fill="#E4A748" transform="translate(808,494)"/>
<path d="M0 0 C2 1 2 1 3.04296875 3.703125 C3.42066406 4.87359375 3.79835938 6.0440625 4.1875 7.25 C6.68217491 14.62088969 10.03283482 21.29622551 14 28 C14.433125 28.73476563 14.86625 29.46953125 15.3125 30.2265625 C18.09582189 34.52972463 21.16357389 37.362012 26 39 C31.64155658 39.98600178 36.22415873 39.05736775 41.203125 36.2890625 C44.06627764 34.23506169 45.93270688 31.84252804 48 29 C48.495 30.98 48.495 30.98 49 33 C43.7580782 38.56549722 39.37778682 42.12328897 31.6328125 43.0078125 C24.85155292 42.98769007 19.8835557 39.87844098 15.01171875 35.33203125 C7.22861937 26.30968109 -0.57086705 11.988208 0 0 Z " fill="#E79E30" transform="translate(515,574)"/>
<path d="M0 0 C1.68821673 0.00186895 3.37643402 0.0032906 5.06465149 0.00428772 C9.47205141 0.00807534 13.87941749 0.01787281 18.2868042 0.0289917 C22.79862002 0.0392873 27.3104414 0.04380267 31.82226562 0.04882812 C40.64845289 0.05949907 49.47461284 0.07652944 58.30078125 0.09765625 C58.30078125 0.42765625 58.30078125 0.75765625 58.30078125 1.09765625 C29.23708949 2.51586346 0.37831315 3.53716619 -28.69921875 2.09765625 C-28.69921875 1.76765625 -28.69921875 1.43765625 -28.69921875 1.09765625 C-19.13750691 -0.05637025 -9.61151045 -0.03152868 0 0 Z " fill="#E79D2A" transform="translate(692.69921875,503.90234375)"/>
<path d="M0 0 C3.76023276 2.50682184 4.47380862 5.23978845 5.9375 9.3125 C7.72490971 14.27966822 9.5488327 17.90779514 13 22 C13 22.66 13 23.32 13 24 C15.52588702 21.63707344 16.88820837 20.33537489 18 17 C18.99 16.67 19.98 16.34 21 16 C20.4380235 19.93383553 19.50383287 22.87020891 17 26 C14.58203125 26.35546875 14.58203125 26.35546875 12 26 C7.35051544 21.88657366 4.50719128 15.59296517 2 10 C1.38125 8.6696875 1.38125 8.6696875 0.75 7.3125 C-0.0789278 4.75663929 -0.1525865 2.67026367 0 0 Z " fill="#E8A032" transform="translate(532,575)"/>
<path d="M0 0 C0.33 0 0.66 0 1 0 C1.33333042 8.80773086 0.41139985 16.93312166 -1.3125 25.5625 C-1.52583984 26.72330078 -1.73917969 27.88410156 -1.95898438 29.08007812 C-2.28286133 30.74393555 -2.28286133 30.74393555 -2.61328125 32.44140625 C-2.90392456 33.93716187 -2.90392456 33.93716187 -3.20043945 35.46313477 C-4.03920431 38.1243884 -4.8640325 39.25809249 -7 41 C-6.39371194 32.15485677 -4.6661747 23.5512532 -2.9375 14.875 C-2.65257132 13.42716661 -2.36806298 11.97925043 -2.08398438 10.53125 C-1.39416131 7.01986662 -0.69867425 3.50963432 0 0 Z " fill="#F0AC37" transform="translate(455,427)"/>
<path d="M0 0 C0.639375 0.61875 1.27875 1.2375 1.9375 1.875 C1.6075 2.865 1.2775 3.855 0.9375 4.875 C0.15375 4.235625 -0.63 3.59625 -1.4375 2.9375 C-5.58117166 -0.31824202 -8.34411195 -0.52845404 -13.5234375 -0.46875 C-17.5344025 0.07427295 -19.38686515 1.94454279 -22.0625 4.875 C-23.5270711 6.82928707 -24.7956289 8.77979011 -26.0625 10.875 C-26.74609375 9.12890625 -26.74609375 9.12890625 -27.0625 6.875 C-24.18291182 1.78935443 -19.7906107 -2.16556862 -14.17578125 -3.85546875 C-8.77821826 -4.54388251 -4.39755566 -3.05136515 0 0 Z " fill="#ECA536" transform="translate(480.0625,362.125)"/>
<path d="M0 0 C0.33 0 0.66 0 1 0 C1.28385427 6.97571859 0.32345246 12.84529541 -1.5 19.5625 C-1.73847656 20.47580078 -1.97695313 21.38910156 -2.22265625 22.33007812 C-2.8053979 24.55615123 -3.3979365 26.77909024 -4 29 C-4.66 29 -5.32 29 -6 29 C-6.33 29.66 -6.66 30.32 -7 31 C-6.40281353 24.31558321 -5.18391933 18.05280622 -3.5 11.5625 C-3.27441406 10.66595703 -3.04882812 9.76941406 -2.81640625 8.84570312 C-1.14826949 2.29653898 -1.14826949 2.29653898 0 0 Z " fill="#EBA635" transform="translate(582,544)"/>
<path d="M0 0 C2.58532097 2.2508969 3.52675162 3.97065913 4.3515625 7.28125 C4.56272705 8.11881836 4.7738916 8.95638672 4.99145508 9.81933594 C5.2005249 10.70395508 5.40959473 11.58857422 5.625 12.5 C5.84373779 13.39750977 6.06247559 14.29501953 6.2878418 15.21972656 C7.75881139 21.45037773 8.83809842 27.5828101 9 34 C4.27117876 29.27117876 3.36011529 20.70139097 1.8125 14.3125 C1.54397217 13.22569946 1.54397217 13.22569946 1.27001953 12.11694336 C0.30009366 7.99168304 -0.1950271 4.27042104 0 0 Z " fill="#ECA738" transform="translate(522,537)"/>
<path d="M0 0 C0.33 0 0.66 0 1 0 C2.15638585 10.97281688 -1.24862978 21.49064386 -4 32 C-4.66 32 -5.32 32 -6 32 C-5.34941146 24.82856996 -4.01874321 17.95786552 -2.4375 10.9375 C-2.20353516 9.88111328 -1.96957031 8.82472656 -1.72851562 7.73632812 C-1.15653688 5.15658727 -0.58028727 2.57788225 0 0 Z " fill="#EFAB38" transform="translate(447,470)"/>
<path d="M0 0 C3.23097238 -0.0788042 5.30338769 0.35746262 7.7109375 2.578125 C13.72454865 9.92507075 20.72343299 20.27056445 20 30 C17.2916764 25.9375146 15.28929788 21.55239245 13.18554688 17.15625 C9.863133 10.37112838 6.26494763 4.47496259 0 0 Z " fill="#EEA734" transform="translate(620,432)"/>
<path d="M0 0 C0.6875 1.7265625 0.6875 1.7265625 1 4 C-2.85361865 10.97200742 -9.59098115 17.85370433 -17 21 C-20.25 21.125 -20.25 21.125 -23 21 C-22.67 20.34 -22.34 19.68 -22 19 C-20.845 18.62875 -19.69 18.2575 -18.5 17.875 C-9.94743546 14.8194159 -4.14537218 7.83246202 0 0 Z " fill="#ECA737" transform="translate(356,483)"/>
<path d="M0 0 C3.47002256 3.11236673 5.39411984 6.29753106 7.5 10.4375 C10.34150961 16.01073362 13.45488999 20.68214549 18 25 C17.34 25.33 16.68 25.66 16 26 C7.55269883 20.36846589 2.22071081 9.82915347 0 0 Z " fill="#EDA633" transform="translate(641,465)"/>
<path d="M0 0 C3.20802061 2.13868041 3.71423905 3.00501829 5.2265625 6.39453125 C5.6184375 7.26787109 6.0103125 8.14121094 6.4140625 9.04101562 C7.01347656 10.41290039 7.01347656 10.41290039 7.625 11.8125 C8.03234375 12.71548828 8.4396875 13.61847656 8.859375 14.54882812 C10.70665258 18.71131948 12.22657915 22.49104649 13 27 C6.19265412 20.50744468 2.83649447 11.82330833 0 3 C0 2.01 0 1.02 0 0 Z " fill="#ECA634" transform="translate(397,493)"/>
<path d="M0 0 C0.33 0 0.66 0 1 0 C0.59141255 8.03555328 -1.18522265 17.68374957 -6.6640625 23.8828125 C-7.10492187 24.25148438 -7.54578125 24.62015625 -8 25 C-9 23 -9 23 -8.14453125 20.3125 C-7.70496094 19.219375 -7.26539063 18.12625 -6.8125 17 C-6.35101562 15.84113281 -5.88953125 14.68226563 -5.4140625 13.48828125 C-4.94742188 12.33714844 -4.48078125 11.18601562 -4 10 C-3.22896151 8.06258163 -2.45810173 6.12509213 -1.6875 4.1875 C-1.12591217 2.79129942 -0.56379392 1.39531121 0 0 Z " fill="#E8A030" transform="translate(574,576)"/>
<path d="M0 0 C4.875 4.625 4.875 4.625 6 8 C9.74346306 9.90252784 13.73145384 10.71810085 17.8125 11.625 C18.97394531 11.88539063 20.13539063 12.14578125 21.33203125 12.4140625 C22.21246094 12.60742188 23.09289062 12.80078125 24 13 C24 13.33 24 13.66 24 14 C17.11287531 14.28110713 11.15259879 14.14949917 5.25 10.125 C3.16698794 8.15771083 1.46190069 6.46214852 0 4 C0 2.68 0 1.36 0 0 Z " fill="#EAA435" transform="translate(394,522)"/>
<path d="M0 0 C2.68830235 0.37141019 3.83740183 0.83704526 5.78125 2.78515625 C9.46433034 7.6652377 12.6556531 12.33449498 15 18 C14.67 18.99 14.34 19.98 14 21 C11.20521269 18.73755313 10.2673848 16.2591275 8.953125 12.98046875 C6.99926683 8.92060771 4.10388225 4.05194112 0 2 C0 1.34 0 0.68 0 0 Z " fill="#EEA937" transform="translate(376,455)"/>
<path d="M0 0 C0.33 0 0.66 0 1 0 C-0.67370087 19.4149301 -0.67370087 19.4149301 -5 27 C-5.4635795 18.03746309 -4.50511541 7.93292062 0 0 Z " fill="#EFA934" transform="translate(576,493)"/>
<path d="M0 0 C0.33 0 0.66 0 1 0 C1.15639125 5.06316683 0.62766071 9.50398438 -0.5 14.4375 C-0.7784375 15.67371094 -1.056875 16.90992188 -1.34375 18.18359375 C-1.5603125 19.11300781 -1.776875 20.04242187 -2 21 C-2.66 21 -3.32 21 -4 21 C-4.33 21.99 -4.66 22.98 -5 24 C-3.20754717 3.20754717 -3.20754717 3.20754717 0 0 Z " fill="#EEA833" transform="translate(593,496)"/>
<path d="M0 0 C0.66 0 1.32 0 2 0 C0.96562783 6.08374159 -3.96377439 10.43731523 -8.6875 14.0625 C-11.37592335 15.15240136 -12.30423231 14.81156796 -15 14 C-14.33613281 13.57589844 -13.67226563 13.15179688 -12.98828125 12.71484375 C-7.3406883 8.96352289 -3.69234925 5.6539098 0 0 Z " fill="#ECA635" transform="translate(342,477)"/>
<path d="M0 0 C1.09180878 3.30529345 0.88297902 5.42086032 0.00390625 8.765625 C-0.33930664 10.09980469 -0.33930664 10.09980469 -0.68945312 11.4609375 C-0.93630859 12.38132812 -1.18316406 13.30171875 -1.4375 14.25 C-1.68048828 15.18585938 -1.92347656 16.12171875 -2.17382812 17.0859375 C-2.77412867 19.3929749 -3.38310665 21.69735439 -4 24 C-4.33 24 -4.66 24 -5 24 C-5.41199432 15.76011369 -4.67623588 7.01435382 0 0 Z " fill="#EDA833" transform="translate(448,384)"/>
<path d="M0 0 C0.33 0 0.66 0 1 0 C0.63777722 7.36519648 -1.08765779 13.66788543 -5 20 C-5.99 20.33 -6.98 20.66 -8 21 C-6.48728707 16.28562282 -4.73227046 11.71041415 -2.875 7.125 C-2.59785156 6.43664062 -2.32070313 5.74828125 -2.03515625 5.0390625 C-1.35835767 3.35873499 -0.67940197 1.67927658 0 0 Z " fill="#ECA533" transform="translate(440,503)"/>
<path d="M0 0 C4.07605457 4.07605457 4.90327594 11.09776009 5.1875 16.6875 C5.125625 17.450625 5.06375 18.21375 5 19 C4.67 18.01 4.34 17.02 4 16 C3.34 16 2.68 16 2 16 C2 14.68 2 13.36 2 12 C1.34 11.67 0.68 11.34 0 11 C0 7.37 0 3.74 0 0 Z " fill="#EAA331" transform="translate(507,545)"/>
<path d="M0 0 C4.66666667 4.66666667 9.33333333 9.33333333 14 14 C13.01 14.495 13.01 14.495 12 15 C2.87822878 8.55719557 2.87822878 8.55719557 0 4 C0 2.68 0 1.36 0 0 Z " fill="#ECA535" transform="translate(636,488)"/>
<path d="M0 0 C3.01708345 1.50854172 3.64457302 3.89269057 5.125 6.875 C5.66382813 7.94492187 6.20265625 9.01484375 6.7578125 10.1171875 C8 13 8 13 8 16 C7.34 16 6.68 16 6 16 C4.9901527 14.08850332 3.99245505 12.17058431 3 10.25 C2.443125 9.18265625 1.88625 8.1153125 1.3125 7.015625 C0 4 0 4 0 0 Z " fill="#EDA635" transform="translate(627,471)"/>
<path d="M0 0 C2.34211663 2.89399469 3.86862171 5.67155428 5.25 9.125 C5.60578125 9.99382812 5.9615625 10.86265625 6.328125 11.7578125 C7 14 7 14 6 16 C1.8685941 12.27363389 0.15622042 7.49952678 -0.1875 2 C-0.125625 1.34 -0.06375 0.68 0 0 Z " fill="#EDA634" transform="translate(375,479)"/>
<path d="M0 0 C0.99 0.33 1.98 0.66 3 1 C2.52949219 1.44730469 2.05898438 1.89460938 1.57421875 2.35546875 C-1.85076649 5.68117905 -4.78871658 8.70750866 -7 13 C-7.67578125 11.26171875 -7.67578125 11.26171875 -8 9 C-6.85546875 6.89453125 -6.85546875 6.89453125 -5.1875 4.8125 C-4.64480469 4.11769531 -4.10210937 3.42289062 -3.54296875 2.70703125 C-2 1 -2 1 0 0 Z " fill="#EDA535" transform="translate(357,455)"/>
<path d="M0 0 C1.32 0 2.64 0 4 0 C4 0.66 4 1.32 4 2 C2.68 2 1.36 2 0 2 C-0.268125 2.886875 -0.53625 3.77375 -0.8125 4.6875 C-1.9250635 7.7909666 -3.10195778 10.31110685 -5 13 C-5.66 13 -6.32 13 -7 13 C-5.60332244 8.11162854 -3.65571105 3.65571105 0 0 Z " fill="#ECA633" transform="translate(365,468)"/>
<path d="M0 0 C3.5895464 4.36988258 4.13599111 7.66467599 4.0625 13.25 C4.05347656 14.14203125 4.04445313 15.0340625 4.03515625 15.953125 C4.02355469 16.62859375 4.01195312 17.3040625 4 18 C2.36427347 15.03095016 1.51349012 12.32420253 0.875 9 C0.70742188 8.154375 0.53984375 7.30875 0.3671875 6.4375 C0 4 0 4 0 0 Z " fill="#EEA934" transform="translate(496,406)"/>
<path d="M0 0 C4.65870821 5.46891833 4.13414356 11.15867854 4 18 C1.03343051 12.50312124 -0.4036063 6.25589769 0 0 Z " fill="#EEA631" transform="translate(518,518)"/>
<path d="M0 0 C3.71905926 2.47937284 3.96900369 3.71739996 5 8 C5.15015097 10.69303025 5.09314985 13.29865447 5 16 C3.13389074 13.20083611 2.31214617 11.18061731 1.375 8 C1.11460937 7.13375 0.85421875 6.2675 0.5859375 5.375 C0 3 0 3 0 0 Z " fill="#EFA832" transform="translate(489,381)"/>
<path d="M0 0 C1.03719328 3.21456356 0.94068337 5.40925583 0.1875 8.6875 C0.01605469 9.47511719 -0.15539062 10.26273438 -0.33203125 11.07421875 C-1 13 -1 13 -3 14 C-3.08159574 9.83861737 -2.98248524 6.0527516 -2 2 C-1.34 2 -0.68 2 0 2 C0 1.34 0 0.68 0 0 Z " fill="#EBA432" transform="translate(561,560)"/>
<path d="M0 0 C1.39073768 2.62890497 2.43969204 5.12122047 3.1875 8 C3.36667969 8.66 3.54585938 9.32 3.73046875 10 C4.03576811 12.26540976 3.68136613 13.835092 3 16 C-0.38370684 12.61629316 -0.05529986 8.7667907 -0.0625 4.1875 C-0.04655989 2.79160221 -0.02736707 1.39572052 0 0 Z " fill="#ECA532" transform="translate(501,518)"/>
<path d="M0 0 C2.35716404 2.15454249 3.78966144 4.19719874 5.1875 7.0625 C5.53167969 7.75472656 5.87585938 8.44695313 6.23046875 9.16015625 C7 11 7 11 7 13 C4 12 4 12 2.83203125 10.29296875 C2.49558594 9.59816406 2.15914063 8.90335938 1.8125 8.1875 C1.46832031 7.50042969 1.12414062 6.81335938 0.76953125 6.10546875 C0 4 0 4 0 0 Z " fill="#EAA332" transform="translate(386,507)"/>
<path d="M0 0 C0.33 0.99 0.66 1.98 1 3 C-3.62 3 -8.24 3 -13 3 C-12.67 2.01 -12.34 1.02 -12 0 C-7.74433453 -1.16063604 -4.3164922 -0.76173392 0 0 Z " fill="#EDA736" transform="translate(374,452)"/>
<path d="M0 0 C0.33 0 0.66 0 1 0 C0.50341703 5.66104589 -0.54510684 9.87674471 -3 15 C-4.33495946 12.33008107 -3.77924641 10.9616317 -3.1875 8.0625 C-2.93033203 6.74958984 -2.93033203 6.74958984 -2.66796875 5.41015625 C-2 3 -2 3 0 0 Z " fill="#E9A02F" transform="translate(557,575)"/>
<path d="M0 0 C0.33 0 0.66 0 1 0 C1.1799928 5.21979128 0.97094808 9.07262981 -1 14 C-1.33 14 -1.66 14 -2 14 C-2.05437607 12.41705218 -2.09296271 10.83355744 -2.125 9.25 C-2.14820313 8.36828125 -2.17140625 7.4865625 -2.1953125 6.578125 C-1.99139502 3.8864142 -1.36551721 2.30095026 0 0 Z " fill="#EDA732" transform="translate(428,481)"/>
<path d="M0 0 C0.33 0.66 0.66 1.32 1 2 C-1.51407619 6.28324091 -3.12314139 8.64531705 -8 10 C-8.33 9.34 -8.66 8.68 -9 8 C-8.01 7.67 -7.02 7.34 -6 7 C-5.67 6.34 -5.34 5.68 -5 5 C-4.34 5 -3.68 5 -3 5 C-2.690625 4.360625 -2.38125 3.72125 -2.0625 3.0625 C-1 1 -1 1 0 0 Z " fill="#ECA536" transform="translate(420,512)"/>
<path d="M0 0 C0.66 0 1.32 0 2 0 C1.05275873 2.36810318 0.34708866 3.75207953 -1.75 5.25 C-4.57753638 6.19251213 -7.03993304 6.1345485 -10 6 C-8.6993321 3.3986642 -7.69919978 3.35811992 -5 2.4375 C-2.26066983 1.60962158 -2.26066983 1.60962158 0 0 Z " fill="#EBA12D" transform="translate(343,498)"/>
<path d="M0 0 C0.33 0 0.66 0 1 0 C1.21192221 5.19209404 0.5912689 9.126739 -1 14 C-1.33 14 -1.66 14 -2 14 C-2.05437607 12.41705218 -2.09296271 10.83355744 -2.125 9.25 C-2.14820313 8.36828125 -2.17140625 7.4865625 -2.1953125 6.578125 C-1.99139502 3.8864142 -1.36551721 2.30095026 0 0 Z " fill="#EDA632" transform="translate(431,466)"/>
<path d="M0 0 C0.33 0 0.66 0 1 0 C1.22577402 5.4185766 0.46670113 9.77487721 -1 15 C-1.33 15 -1.66 15 -2 15 C-2.3690205 4.44191344 -2.3690205 4.44191344 0 0 Z " fill="#F0AA36" transform="translate(434,449)"/>
<path d="M0 0 C2.58155616 3.87233424 3.12134154 5.53536019 3.0625 10.125 C3.05347656 11.03507812 3.04445313 11.94515625 3.03515625 12.8828125 C3.02355469 13.58148438 3.01195312 14.28015625 3 15 C-0.34944548 9.97583178 -0.09834146 5.90048743 0 0 Z " fill="#EFA82E" transform="translate(504,445)"/>
<path d="M0 0 C4.95 0.99 9.9 1.98 15 3 C15 3.33 15 3.66 15 4 C9.87416389 4.10251672 5.05002222 4.03590199 0 3 C0 2.01 0 1.02 0 0 Z " fill="#E99D29" transform="translate(403,532)"/>
<path d="M0 0 C0.33 0.99 0.66 1.98 1 3 C1.66 3 2.32 3 3 3 C3 6.63 3 10.26 3 14 C0.31907309 11.31907309 0.61329743 9.60832637 0.375 5.875 C0.30023437 4.77929688 0.22546875 3.68359375 0.1484375 2.5546875 C0.09945312 1.71164062 0.05046875 0.86859375 0 0 Z " fill="#EEA72F" transform="translate(513,493)"/>
<path d="M0 0 C3.07692057 2.76922851 4.77800007 5.02850024 6 9 C6 9.99 6 10.98 6 12 C5.34 12 4.68 12 4 12 C3.32645501 10.56570999 2.66140299 9.12742943 2 7.6875 C1.62875 6.88699219 1.2575 6.08648437 0.875 5.26171875 C0 3 0 3 0 0 Z " fill="#EDA733" transform="translate(391,478)"/>
<path d="M0 0 C2.68092691 2.68092691 2.38670257 4.39167363 2.625 8.125 C2.69976562 9.22070312 2.77453125 10.31640625 2.8515625 11.4453125 C2.90054687 12.28835938 2.94953125 13.13140625 3 14 C0.19954377 10.85408067 -0.35261589 8.932936 -0.1875 4.75 C-0.16042969 3.85796875 -0.13335937 2.9659375 -0.10546875 2.046875 C-0.07066406 1.37140625 -0.03585937 0.6959375 0 0 Z " fill="#EDA52F" transform="translate(497,498)"/>
<path d="M0 0 C2.80045623 3.14591933 3.35261589 5.067064 3.1875 9.25 C3.16042969 10.14203125 3.13335937 11.0340625 3.10546875 11.953125 C3.07066406 12.62859375 3.03585937 13.3040625 3 14 C0.48073099 9.12941325 -0.10395221 5.50946709 0 0 Z " fill="#EFA72E" transform="translate(500,425)"/>
<path d="M0 0 C0.33 0 0.66 0 1 0 C0.67 4.29 0.34 8.58 0 13 C-2 11 -2 11 -2.25 7.625 C-2.02515633 4.36476676 -1.7239511 2.69367359 0 0 Z " fill="#EDA42F" transform="translate(564,547)"/>
<path d="M0 0 C0.33 0 0.66 0 1 0 C1.08159574 4.16138263 0.98248524 7.9472484 0 12 C-0.66 12 -1.32 12 -2 12 C-2.17835515 7.45194365 -1.99785435 4.1205746 0 0 Z " fill="#EFA934" transform="translate(596,482)"/>
<path d="M0 0 C0.66 0 1.32 0 2 0 C1.40380045 4.86896303 0.43023178 9.32790951 -1 14 C-2.15837573 10.52487282 -1.77265943 8.86329714 -1.0625 5.3125 C-0.86785156 4.31863281 -0.67320312 3.32476562 -0.47265625 2.30078125 C-0.31667969 1.54152344 -0.16070313 0.78226562 0 0 Z " fill="#EFA72E" transform="translate(581,470)"/>
<path d="M0 0 C3 1 3 1 4.6875 3.1875 C6.17161628 6.36774916 6.24194353 8.53214273 6 12 C4.02433812 10.02433812 3.10420928 8.47662906 1.875 6 C1.52179688 5.29875 1.16859375 4.5975 0.8046875 3.875 C0 2 0 2 0 0 Z " fill="#EDA532" transform="translate(483,368)"/>
<path d="M0 0 C0.33 0 0.66 0 1 0 C0.49202991 4.3177458 -0.19682779 8.03302114 -2 12 C-2.33 12 -2.66 12 -3 12 C-2.88541307 10.56163249 -2.75790884 9.12429034 -2.625 7.6875 C-2.55539062 6.88699219 -2.48578125 6.08648437 -2.4140625 5.26171875 C-2 3 -2 3 0 0 Z " fill="#EDA531" transform="translate(424,499)"/>
<path d="M0 0 C0.33 0 0.66 0 1 0 C1.08086147 1.79093191 1.13912702 3.58289628 1.1875 5.375 C1.22230469 6.37273437 1.25710938 7.37046875 1.29296875 8.3984375 C1.19628906 9.25695312 1.09960938 10.11546875 1 11 C0.01 11.66 -0.98 12.32 -2 13 C-1.48041715 8.62065881 -0.94324258 4.31196609 0 0 Z " fill="#EEA62F" transform="translate(447,470)"/>
<path d="M0 0 C0.33 0 0.66 0 1 0 C1.08131463 1.43655854 1.13933559 2.8744483 1.1875 4.3125 C1.23970703 5.51326172 1.23970703 5.51326172 1.29296875 6.73828125 C0.93801608 9.47851584 0.10633718 10.29171079 -2 12 C-1.85831863 10.56208484 -1.71148957 9.1246763 -1.5625 7.6875 C-1.48128906 6.88699219 -1.40007812 6.08648437 -1.31640625 5.26171875 C-1 3 -1 3 0 0 Z " fill="#EFA930" transform="translate(458,414)"/>
<path d="M0 0 C0.33 0 0.66 0 1 0 C1.40178571 8.03571429 1.40178571 8.03571429 -2 12 C-1.85962479 10.18706911 -1.71255111 8.3746557 -1.5625 6.5625 C-1.48128906 5.55316406 -1.40007812 4.54382813 -1.31640625 3.50390625 C-1 1 -1 1 0 0 Z " fill="#F0A830" transform="translate(462,395)"/>
<path d="M0 0 C0.33 0 0.66 0 1 0 C1 2.64 1 5.28 1 8 C0.34 8 -0.32 8 -1 8 C-1.33 8.66 -1.66 9.32 -2 10 C-1.85950482 8.52031676 -1.71245174 7.04125484 -1.5625 5.5625 C-1.48128906 4.73878906 -1.40007813 3.91507813 -1.31640625 3.06640625 C-1 1 -1 1 0 0 Z " fill="#E99F2B" transform="translate(577,565)"/>
<path d="M0 0 C2.00293347 3.00440021 2.49271626 4.70993945 3.125 8.1875 C3.37636719 9.53908203 3.37636719 9.53908203 3.6328125 10.91796875 C3.75398437 11.60503906 3.87515625 12.29210937 4 13 C0.87506296 9.87506296 0.04088867 7.08354985 -0.125 2.6875 C-0.08375 1.800625 -0.0425 0.91375 0 0 Z " fill="#EA9B22" transform="translate(527,558)"/>
<path d="M0 0 C0.33 0 0.66 0 1 0 C1.28301994 4.90567888 1.16492205 7.24528933 -2 11 C-1.85957123 9.35369672 -1.71250671 7.70795821 -1.5625 6.0625 C-1.48128906 5.14597656 -1.40007813 4.22945312 -1.31640625 3.28515625 C-1 1 -1 1 0 0 Z " fill="#ECA32D" transform="translate(585,532)"/>
<path d="M0 0 C0.33 0 0.66 0 1 0 C1.66 3.3 2.32 6.6 3 10 C2.01 10.495 2.01 10.495 1 11 C0.34 10.34 -0.32 9.68 -1 9 C-0.9765625 6.8359375 -0.9765625 6.8359375 -0.625 4.375 C-0.51414062 3.55773437 -0.40328125 2.74046875 -0.2890625 1.8984375 C-0.19367188 1.27195312 -0.09828125 0.64546875 0 0 Z " fill="#EFB550" transform="translate(431,459)"/>
<path d="M0 0 C2.25 -0.375 2.25 -0.375 5 0 C7.3125 3 7.3125 3 9 6 C8.67 6.66 8.34 7.32 8 8 C4 3.25 4 3.25 4 1 C2.68 0.67 1.36 0.34 0 0 Z " fill="#EEA833" transform="translate(611,445)"/>
<path d="M0 0 C0.33 0.66 0.66 1.32 1 2 C0.22265625 3.7265625 0.22265625 3.7265625 -0.9375 5.625 C-1.618125 6.73875 -2.29875 7.8525 -3 9 C-3.89674777 6.48910624 -4.13172674 5.35464891 -3.1875 2.8125 C-2 1 -2 1 0 0 Z " fill="#F0A832" transform="translate(593,444)"/>
<path d="M0 0 C0.66 0 1.32 0 2 0 C2.1875 2.8125 2.1875 2.8125 2 6 C1.01 6.99 0.02 7.98 -1 9 C-0.67 6.03 -0.34 3.06 0 0 Z " fill="#EEA730" transform="translate(464,384)"/>
<path d="M0 0 C3.00617269 3.00617269 2.59585316 5.82381598 3 10 C1.5 8.9375 1.5 8.9375 0 7 C-0.1875 3.3125 -0.1875 3.3125 0 0 Z " fill="#EEA832" transform="translate(474,386)"/>
<path d="M0 0 C2.52259061 1.97420135 2.9929808 2.96745642 3.6875 6.1875 C3.790625 7.115625 3.89375 8.04375 4 9 C3.67 8.34 3.34 7.68 3 7 C2.34 7 1.68 7 1 7 C0.67 4.69 0.34 2.38 0 0 Z " fill="#ECA733" transform="translate(620,454)"/>
<path d="" fill="#F1B751" transform="translate(0,0)"/>
<path d="M0 0 C2 1 2 1 2 1 Z " fill="#EEB650" transform="translate(616,457)"/>
<path d="" fill="#6E6F6F" transform="translate(0,0)"/>
<path d="" fill="#EBAB49" transform="translate(0,0)"/>
<path d="" fill="#E9AB48" transform="translate(0,0)"/>
<path d="" fill="#E2A547" transform="translate(0,0)"/>
<path d="" fill="#E6AA49" transform="translate(0,0)"/>
<path d="" fill="#E9AE49" transform="translate(0,0)"/>
<path d="" fill="#E7AE4A" transform="translate(0,0)"/>
<path d="" fill="#EDB34F" transform="translate(0,0)"/>
<path d="" fill="#EBAF4C" transform="translate(0,0)"/>
<path d="" fill="#ECB14E" transform="translate(0,0)"/>
<path d="" fill="#E7AF50" transform="translate(0,0)"/>
<path d="" fill="#EEB650" transform="translate(0,0)"/>
<path d="" fill="#EDB54E" transform="translate(0,0)"/>
<path d="" fill="#EFB751" transform="translate(0,0)"/>
<path d="" fill="#E9AD51" transform="translate(0,0)"/>
<path d="" fill="#EFB852" transform="translate(0,0)"/>
<path d="" fill="#EDB452" transform="translate(0,0)"/>
<path d="" fill="#ECB34F" transform="translate(0,0)"/>
<path d="" fill="#EAB14C" transform="translate(0,0)"/>
<path d="" fill="#F1B954" transform="translate(0,0)"/>
<path d="" fill="#EEB44F" transform="translate(0,0)"/>
<path d="" fill="#ECB24F" transform="translate(0,0)"/>
<path d="" fill="#F1B751" transform="translate(0,0)"/>
<path d="" fill="#EFB651" transform="translate(0,0)"/>
<path d="" fill="#E6AE4E" transform="translate(0,0)"/>
<path d="" fill="#EFB64F" transform="translate(0,0)"/>
<path d="" fill="#EFBC53" transform="translate(0,0)"/>
<path d="" fill="#F0BA55" transform="translate(0,0)"/>
<path d="" fill="#F0B852" transform="translate(0,0)"/>
<path d="" fill="#EFB958" transform="translate(0,0)"/>
<path d="" fill="#F0B950" transform="translate(0,0)"/>
<path d="" fill="#E7AF4E" transform="translate(0,0)"/>
<path d="" fill="#DCA84D" transform="translate(0,0)"/>
</svg>
